<?xml version="1.0" standalone="no"?>
<!DOCTYPE svg PUBLIC "-//W3C//DTD SVG 20010904//EN"
 "http://www.w3.org/TR/2001/REC-SVG-20010904/DTD/svg10.dtd">
<svg version="1.0" xmlns="http://www.w3.org/2000/svg"
 width="386.000000pt" height="107.000000pt" viewBox="0 0 386.000000 107.000000"
 preserveAspectRatio="xMidYMid meet">

<g transform="translate(0.000000,107.000000) scale(0.100000,-0.100000)"
fill="#2b4b84" stroke="none">
<path d="M0 535 l0 -525 140 0 140 0 0 190 0 190 245 0 245 0 0 120 0 120
-245 0 -245 0 0 90 0 90 270 0 270 0 0 125 0 125 -410 0 -410 0 0 -525z"/>
<path d="M930 535 l0 -525 395 0 395 0 0 130 0 131 -252 -1 -253 -1 -2 393 -2
393 -141 3 -140 3 0 -526z"/>
<path d="M1820 535 l0 -525 420 0 420 0 0 125 0 125 -280 0 -280 0 0 85 0 85
250 0 250 0 0 110 0 110 -250 0 -250 0 0 85 0 85 275 0 275 0 0 120 0 120
-415 0 -415 0 0 -525z"/>
<path d="M2750 535 l0 -525 140 0 140 0 2 300 3 300 130 -200 c71 -110 132
-200 135 -200 3 0 64 91 135 201 l130 201 3 -301 2 -302 143 3 142 3 3 523 2
522 -154 0 -154 0 -123 -200 c-67 -110 -125 -200 -128 -200 -3 1 -60 91 -126
200 l-120 200 -152 0 -153 0 0 -525z"/>
</g>
</svg>
